<?xml version="1.0" encoding="UTF-8" standalone="no"?>
<svg xmlns:xlink="http://www.w3.org/1999/xlink" xmlns:ffdec="http://www.free-decompiler.com/flash" ffdec:objectType="shape" height="1445.15px" width="2886.65px" xmlns="http://www.w3.org/2000/svg">
  <g transform="matrix(1.0, 0.0, 0.0, 1.0, -326.1, -799.95)">
    <path d="M3053.05 1016.85 Q3045.55 1014.4 3026.5 1014.4 3012.55 1014.4 3006.55 1017.75 3002.75 1019.85 3002.75 1022.8 3002.75 1024.25 3004.4 1025.8 3005.35 1026.75 3007.95 1028.75 3013.15 1033.1 3013.15 1038.6 L3012.4 1042.5 Q3011.65 1045.95 3011.65 1046.4 L3011.1 1050.85 3011.05 1051.4 3010.55 1051.4 3010.55 1053.6 3013.5 1056.1 Q3014.15 1056.75 3014.15 1057.9 3014.15 1059.55 3013.4 1060.0 L3009.65 1060.5 Q3004.45 1060.5 3001.85 1058.8 2997.65 1058.05 2991.95 1056.4 2981.15 1053.25 2973.6 1053.25 2966.7 1053.25 2961.2 1055.25 2958.0 1056.35 2952.45 1059.6 2947.1 1062.7 2943.5 1063.9 2937.7 1065.9 2930.25 1065.9 2923.9 1065.9 2905.95 1062.25 2894.05 1059.8 2889.25 1057.85 L2888.3 1058.0 2867.75 1052.25 Q2858.2 1052.25 2850.35 1051.9 2835.0 1051.2 2832.3 1046.3 2829.55 1041.2 2825.7 1038.5 2817.15 1032.4 2801.1 1032.4 2796.0 1032.4 2789.95 1033.55 L2784.05 1034.65 Q2782.9 1034.65 2782.3 1034.05 L2778.0 1035.25 2777.95 1035.2 2777.85 1036.05 Q2777.85 1037.4 2784.55 1042.65 2791.25 1047.85 2791.25 1050.85 L2791.1 1052.0 2791.5 1052.0 2792.25 1052.0 Q2792.2 1053.65 2791.65 1054.4 2790.4 1056.0 2786.5 1056.0 L2785.4 1056.0 2784.8 1056.0 2784.35 1055.95 Q2777.3 1055.7 2769.45 1053.85 2759.25 1051.4 2757.5 1051.25 L2739.8 1048.85 Q2725.45 1046.75 2723.15 1046.75 2714.6 1046.75 2705.8 1052.9 2698.3 1059.35 2697.3 1059.9 L2684.5 1066.6 2678.85 1066.45 Q2676.25 1065.75 2675.5 1069.25 L2675.15 1070.7 2676.1 1070.85 Q2676.0 1079.35 2673.6 1089.85 L2673.05 1092.15 2673.1 1094.6 Q2673.1 1097.9 2672.25 1100.15 2670.45 1104.65 2665.65 1104.65 2662.8 1104.65 2661.25 1102.75 L2661.0 1102.4 2660.4 1102.05 Q2658.0 1100.4 2656.4 1100.4 2652.9 1100.4 2651.5 1103.8 L2651.0 1103.75 Q2651.05 1104.4 2652.15 1106.45 2653.25 1108.65 2653.25 1110.25 2653.25 1112.15 2651.25 1115.8 L2649.4 1118.5 Q2647.85 1121.85 2642.35 1127.7 2638.55 1131.75 2636.55 1133.15 L2636.55 1133.6 Q2636.55 1135.0 2638.5 1139.9 2640.4 1144.75 2640.4 1148.0 2640.4 1150.75 2637.15 1154.45 2633.9 1158.15 2633.9 1158.75 L2634.4 1162.3 2634.9 1165.85 Q2634.9 1172.8 2631.9 1176.3 2629.55 1179.05 2624.6 1180.3 L2615.55 1181.95 Q2610.2 1183.15 2607.35 1185.6 2601.9 1190.25 2586.5 1197.0 2580.85 1199.5 2578.55 1201.3 2575.35 1203.75 2575.35 1206.85 2575.35 1209.45 2583.75 1214.85 2592.95 1220.7 2593.6 1221.75 L2596.7 1228.9 Q2598.65 1233.5 2602.3 1236.6 2609.25 1242.5 2616.55 1246.9 2619.4 1248.65 2623.25 1250.7 2624.25 1248.15 2629.25 1247.2 2635.0 1246.15 2643.4 1247.5 2652.0 1248.9 2658.65 1252.1 2666.1 1255.7 2668.15 1260.25 L2674.3 1271.0 Q2677.85 1276.95 2681.5 1281.5 L2689.85 1292.3 Q2693.55 1297.4 2695.4 1301.6 2696.3 1302.0 2697.6 1303.05 L2702.0 1307.05 Q2704.65 1309.5 2706.0 1310.05 2724.3 1316.2 2730.85 1318.5 2740.8 1321.95 2749.4 1325.95 2763.3 1332.35 2765.2 1336.6 2775.55 1342.5 2786.3 1342.5 2788.3 1342.5 2791.2 1343.4 L2795.65 1344.25 Q2816.7 1344.25 2842.95 1338.4 L2860.95 1334.35 Q2870.15 1332.5 2876.15 1332.5 2885.3 1332.5 2897.85 1342.25 2902.25 1345.6 2905.8 1349.2 2908.9 1352.35 2908.9 1353.0 2911.9 1355.75 2911.9 1359.05 2911.9 1369.5 2908.45 1375.95 2905.8 1380.95 2899.85 1385.25 2892.5 1389.95 2888.55 1392.85 2881.55 1398.05 2877.0 1404.85 2875.6 1406.9 2874.95 1410.05 L2874.05 1415.85 Q2872.7 1423.35 2867.0 1428.0 2860.95 1432.85 2859.6 1439.35 2859.25 1441.15 2859.25 1450.65 2859.25 1459.75 2854.5 1466.7 2849.55 1474.0 2842.4 1474.0 L2840.85 1473.95 2840.4 1473.4 2838.4 1471.5 Q2838.45 1470.15 2839.15 1469.8 L2841.3 1469.65 Q2845.55 1469.65 2849.1 1466.0 2854.55 1460.35 2854.8 1458.85 2855.3 1456.1 2855.35 1451.95 L2855.3 1444.75 Q2855.3 1439.05 2861.6 1430.3 2869.45 1419.3 2870.75 1416.05 2871.45 1414.3 2872.05 1408.8 2872.55 1404.05 2874.15 1401.5 2876.55 1397.65 2880.95 1394.25 2883.7 1392.15 2890.9 1387.35 2895.3 1384.3 2899.2 1380.6 2904.05 1376.05 2905.0 1373.25 L2906.75 1365.8 2907.9 1359.1 Q2907.9 1357.65 2906.2 1355.85 2904.5 1354.05 2904.5 1353.5 L2904.5 1353.3 Q2900.1 1349.6 2895.3 1346.0 2883.0 1336.6 2879.5 1336.6 2870.85 1336.6 2861.35 1338.45 L2844.0 1342.5 Q2819.6 1348.4 2795.5 1348.4 2778.65 1348.4 2766.6 1341.85 L2762.35 1339.25 Q2759.0 1337.1 2753.65 1334.15 2740.95 1327.1 2726.75 1321.3 2722.7 1319.65 2715.5 1317.65 L2704.4 1314.5 Q2694.45 1311.2 2692.85 1306.45 L2688.7 1297.45 Q2685.75 1291.9 2682.0 1288.05 2675.05 1281.0 2668.3 1268.75 2667.2 1263.8 2662.95 1259.6 2654.55 1251.35 2636.3 1251.35 2628.55 1251.35 2627.1 1252.75 2630.95 1255.05 2632.45 1257.2 2634.4 1260.0 2634.4 1265.05 2634.4 1266.2 2633.55 1267.1 2632.8 1267.9 2631.95 1268.0 L2629.45 1269.65 Q2627.45 1270.75 2618.75 1274.45 2611.3 1277.6 2608.0 1280.0 2603.1 1283.6 2603.1 1287.8 2603.1 1293.15 2608.8 1301.7 2613.5 1308.7 2614.35 1312.3 2615.45 1313.25 2615.9 1315.15 L2616.3 1319.1 2616.55 1322.35 Q2616.55 1327.25 2611.25 1331.75 L2607.15 1335.0 Q2605.05 1336.8 2604.4 1338.25 2603.7 1339.9 2602.85 1345.75 2602.05 1351.05 2600.55 1353.5 2592.95 1366.1 2576.65 1374.65 2569.15 1378.25 2566.6 1379.6 2562.5 1381.7 2562.5 1383.1 2562.5 1386.55 2565.45 1390.4 2567.1 1392.55 2571.9 1397.05 2576.55 1401.4 2578.35 1403.9 2581.3 1407.9 2581.3 1411.75 2581.3 1420.4 2565.95 1426.9 2560.7 1429.05 2554.7 1430.6 2549.9 1431.8 2548.3 1431.8 2545.5 1431.8 2544.75 1430.7 L2544.55 1429.5 Q2544.55 1428.55 2549.65 1427.25 L2560.9 1424.3 Q2577.25 1419.5 2577.25 1411.75 2577.25 1408.8 2574.3 1405.3 2573.0 1403.75 2567.9 1398.85 2558.5 1390.0 2558.5 1383.25 2558.5 1378.8 2563.15 1376.0 2566.3 1374.15 2577.1 1369.15 2583.2 1366.0 2588.15 1361.4 2591.35 1358.4 2595.25 1353.5 2597.95 1350.05 2598.9 1345.7 L2600.15 1337.85 Q2600.6 1335.85 2606.7 1330.45 2612.55 1325.35 2612.55 1322.6 2612.55 1321.75 2611.6 1317.45 L2611.05 1315.2 Q2609.75 1313.75 2607.8 1310.15 2604.5 1303.5 2603.6 1302.15 2601.1 1298.35 2600.1 1295.1 2599.15 1292.0 2599.15 1288.0 2599.15 1283.1 2600.65 1280.6 2603.15 1276.4 2611.05 1273.5 2613.2 1272.7 2624.3 1266.0 2627.65 1264.2 2629.9 1263.35 L2630.0 1262.75 Q2630.0 1259.45 2620.15 1254.0 L2610.25 1249.15 2594.25 1235.25 Q2591.8 1223.95 2581.2 1217.3 2575.1 1213.5 2574.35 1212.9 2571.4 1210.4 2571.4 1207.1 2571.4 1202.8 2572.95 1200.95 2574.2 1199.5 2578.05 1198.05 2591.2 1193.05 2600.9 1185.5 L2604.3 1182.35 Q2606.45 1180.25 2607.85 1179.5 2610.4 1178.05 2616.1 1177.25 L2623.75 1176.25 Q2627.7 1175.3 2629.65 1171.2 2631.0 1168.4 2631.0 1165.65 L2630.5 1162.25 2630.0 1158.8 Q2630.0 1156.05 2633.2 1153.2 2636.4 1150.35 2636.4 1147.8 2636.4 1146.15 2634.45 1140.9 2632.5 1135.65 2632.5 1133.6 L2632.55 1132.8 Q2632.4 1132.45 2632.4 1131.6 2632.4 1131.4 2632.95 1130.85 2633.4 1129.8 2634.3 1129.55 L2638.35 1125.95 Q2642.1 1122.4 2644.5 1118.9 L2644.45 1118.75 2646.85 1114.4 Q2649.0 1111.6 2649.0 1110.1 L2647.9 1107.0 Q2646.8 1104.4 2646.8 1103.35 2646.8 1100.55 2648.25 1099.6 2650.4 1096.25 2656.25 1096.25 2659.6 1096.25 2661.95 1097.9 L2663.7 1099.0 2663.7 1099.15 2664.05 1099.4 Q2665.05 1100.05 2665.85 1100.05 2668.7 1100.05 2669.2 1096.85 L2669.15 1092.6 2669.75 1092.05 2669.65 1084.5 Q2669.65 1083.4 2670.9 1076.9 L2671.9 1071.45 Q2671.3 1071.0 2671.1 1070.05 L2671.1 1068.05 Q2671.1 1067.0 2671.45 1066.2 L2671.0 1064.9 Q2669.8 1061.55 2669.05 1060.75 2665.4 1056.85 2650.75 1055.5 L2633.9 1054.0 2613.2 1048.3 Q2603.7 1045.65 2599.55 1043.8 L2599.45 1044.1 2599.4 1044.4 2587.75 1042.3 Q2580.85 1040.9 2580.2 1036.75 2580.05 1034.35 2579.7 1033.1 2579.15 1030.95 2577.25 1029.4 2574.35 1027.1 2564.9 1023.25 2555.3 1019.35 2553.0 1017.6 L2544.1 1010.1 Q2537.65 1004.55 2537.3 1004.55 2535.4 1004.55 2532.95 1006.2 L2531.95 1006.85 2531.9 1006.95 2531.45 1007.15 Q2530.65 1007.4 2529.8 1007.8 2528.3 1008.45 2526.75 1009.35 2521.65 1012.25 2512.75 1012.25 2504.0 1012.25 2500.4 1009.7 2498.55 1008.2 2497.4 1007.45 2495.35 1006.1 2492.4 1005.3 L2486.5 1004.75 2480.55 1004.7 Q2474.1 1004.3 2474.55 999.25 2475.45 989.35 2469.05 986.45 2465.4 984.75 2454.35 984.75 2453.15 984.75 2445.8 988.35 2438.4 991.9 2436.8 991.9 2434.45 991.9 2432.15 991.15 L2429.9 990.55 2429.9 990.6 2410.75 994.0 2407.35 994.75 Q2406.1 996.3 2402.5 997.85 2396.65 1000.35 2389.65 1000.35 L2388.75 1000.2 Q2378.25 1004.6 2378.25 1009.85 2378.25 1011.4 2379.5 1015.5 L2380.15 1017.7 2380.05 1017.7 Q2381.25 1019.6 2381.25 1021.6 2381.25 1023.6 2377.75 1026.9 2374.25 1030.25 2374.25 1033.1 2374.25 1034.25 2381.45 1038.6 2388.65 1042.9 2388.65 1044.8 L2388.55 1045.55 2389.15 1045.65 Q2389.0 1047.8 2384.9 1049.45 2379.7 1051.5 2370.3 1051.5 2364.3 1051.5 2360.1 1049.5 2355.9 1047.5 2347.75 1047.5 2343.75 1047.5 2339.8 1044.9 2335.9 1042.3 2328.55 1042.3 2324.1 1042.3 2322.5 1043.2 2320.85 1044.05 2318.15 1044.05 2313.7 1044.05 2301.55 1037.75 2289.4 1031.4 2282.85 1031.4 2268.15 1031.4 2261.2 1042.45 2258.15 1048.0 2256.7 1050.05 2254.2 1053.5 2250.9 1053.5 2249.25 1053.5 2247.2 1052.75 2245.1 1052.0 2243.5 1052.0 2237.1 1052.0 2234.35 1060.25 2232.95 1064.35 2232.8 1068.75 2232.8 1075.75 2234.0 1080.95 2235.85 1089.05 2240.25 1090.75 2246.55 1093.15 2250.6 1094.0 2253.8 1094.7 2256.0 1095.75 2257.7 1096.5 2259.0 1098.35 L2260.6 1101.25 2263.0 1107.0 Q2265.15 1110.6 2268.8 1110.6 2270.15 1110.6 2270.7 1111.5 L2271.0 1112.5 Q2271.0 1115.05 2267.05 1115.05 2262.0 1115.05 2259.35 1110.35 2258.75 1109.25 2256.75 1102.9 2255.2 1098.25 2246.05 1095.9 L2239.5 1094.45 Q2236.3 1093.7 2235.65 1093.0 2231.45 1088.3 2229.9 1081.25 2228.85 1076.55 2228.85 1068.9 2228.85 1061.9 2230.5 1057.25 2233.9 1047.5 2243.5 1047.5 2246.25 1047.5 2248.5 1048.45 2249.6 1048.95 2250.3 1049.4 2252.45 1049.4 2254.25 1047.2 L2257.6 1041.95 Q2262.8 1033.0 2269.3 1029.55 2282.65 1022.45 2297.9 1030.2 2301.9 1032.25 2308.9 1036.55 2314.7 1039.85 2318.1 1039.85 2319.6 1039.85 2321.45 1039.0 2323.3 1038.1 2328.6 1038.1 2338.35 1038.1 2342.05 1040.8 L2343.9 1042.65 Q2344.7 1043.5 2345.6 1043.5 L2350.5 1043.05 2355.4 1042.55 Q2358.4 1042.55 2362.6 1044.9 2366.75 1047.25 2370.5 1047.25 L2378.95 1046.7 2380.25 1047.0 Q2381.6 1047.0 2382.85 1045.9 2379.95 1044.4 2376.25 1040.8 2370.3 1035.1 2370.3 1033.15 2370.3 1029.65 2373.6 1025.55 L2376.85 1021.5 Q2374.75 1017.4 2374.75 1016.25 2374.75 1015.4 2374.9 1014.85 2374.25 1012.2 2374.25 1009.85 2374.25 1004.25 2376.85 1001.15 2378.25 999.5 2380.55 998.2 2381.9 996.25 2389.2 994.75 2396.2 993.3 2397.7 994.8 2400.5 993.95 2404.3 991.8 2406.3 990.65 2407.05 990.75 L2407.3 990.85 2426.7 986.4 2427.3 986.3 Q2428.4 985.5 2430.85 985.5 L2431.75 985.6 2432.25 985.5 2432.15 985.65 2434.4 986.55 Q2436.25 987.55 2436.55 987.55 2438.9 987.55 2440.75 986.3 L2444.4 983.65 Q2450.6 980.05 2466.1 981.0 2471.15 981.6 2474.9 985.0 2478.2 987.9 2478.5 990.65 2478.65 992.15 2477.7 996.8 2477.75 1000.7 2483.0 1000.6 2491.6 1000.45 2499.8 1004.2 2508.1 1008.05 2512.65 1008.05 2520.8 1008.05 2525.35 1004.95 2527.85 1003.2 2528.8 1002.8 2530.55 1002.05 2533.05 1001.9 2538.45 999.7 2540.85 1001.35 L2545.35 1005.1 2549.65 1009.15 Q2554.25 1014.0 2563.85 1018.35 2568.9 1020.65 2575.5 1023.05 2581.4 1025.55 2583.4 1030.8 L2585.0 1034.7 Q2586.15 1036.8 2588.25 1038.1 L2594.55 1038.5 2600.1 1039.4 2600.05 1040.35 Q2605.0 1040.75 2616.45 1044.0 2626.8 1046.9 2639.75 1051.25 2663.25 1049.85 2671.75 1058.45 2673.8 1060.5 2674.9 1063.2 2677.6 1061.85 2680.75 1061.55 L2684.75 1061.3 2690.8 1058.3 Q2695.75 1055.85 2697.0 1055.0 L2705.55 1048.1 Q2714.05 1042.55 2723.25 1042.55 2726.5 1042.55 2751.3 1046.4 L2783.95 1051.65 Q2785.0 1051.1 2787.15 1050.75 2783.8 1047.1 2777.0 1042.3 2773.85 1040.05 2773.85 1035.85 2773.85 1031.15 2786.8 1029.65 L2790.0 1029.35 2790.45 1028.65 2790.9 1028.65 2790.4 1029.3 2796.25 1028.5 Q2830.5 1030.45 2835.4 1042.85 2834.65 1044.1 2843.0 1045.45 L2862.05 1048.0 Q2882.2 1050.65 2888.1 1053.55 L2889.55 1053.5 Q2891.2 1053.5 2903.65 1057.65 2918.15 1061.75 2930.15 1061.75 2937.4 1061.75 2942.85 1059.75 2946.05 1058.6 2951.3 1055.4 2956.5 1052.25 2960.05 1051.05 2965.85 1049.05 2973.65 1049.05 2982.3 1049.05 2993.2 1051.75 2996.65 1052.6 2999.85 1053.6 3000.95 1055.0 3003.75 1055.0 L3004.05 1055.0 Q3004.65 1055.9 3006.8 1055.85 L3006.5 1054.75 3006.3 1053.95 3006.75 1052.55 3006.5 1051.5 Q3006.8 1050.8 3007.35 1050.4 L3007.8 1047.15 Q3008.8 1039.9 3008.8 1038.35 3008.8 1035.15 3003.8 1031.2 2998.75 1027.2 2998.75 1022.75 2998.75 1019.1 3002.5 1015.7 3008.5 1010.3 3021.35 1010.3 3039.45 1010.3 3050.9 1012.6 3059.05 1014.2 3060.15 1015.85 3065.8 1017.9 3079.0 1025.85 L3113.3 1047.65 Q3117.0 1049.55 3119.75 1052.4 L3124.2 1057.3 Q3130.3 1063.15 3146.6 1066.15 3152.75 1067.3 3156.4 1070.1 L3161.1 1075.1 Q3167.05 1082.45 3167.55 1084.15 L3168.65 1084.65 Q3171.45 1084.65 3190.2 1080.4 3198.75 1078.5 3202.1 1079.05 3202.3 1078.55 3202.65 1078.5 3203.4 1078.4 3204.7 1080.75 3207.55 1086.0 3209.75 1096.0 L3211.55 1106.85 3212.75 1115.3 3212.7 1118.2 3211.25 1122.75 Q3210.95 1123.6 3207.5 1126.5 3206.55 1127.2 3204.4 1128.1 L3200.95 1128.55 3197.5 1129.1 Q3200.3 1133.75 3200.3 1135.4 3200.3 1136.75 3199.8 1138.2 L3198.35 1141.75 Q3201.4 1144.45 3206.6 1147.0 3209.25 1148.35 3209.25 1151.05 3206.05 1162.25 3200.8 1162.25 3199.2 1162.25 3198.6 1161.25 3198.35 1160.8 3198.35 1160.1 3198.35 1159.75 3201.85 1156.35 3205.3 1152.95 3205.3 1151.0 3205.3 1149.65 3199.85 1147.6 3194.35 1145.5 3194.35 1142.0 3194.35 1140.5 3195.2 1138.25 L3196.0 1135.5 Q3196.0 1134.5 3194.7 1132.55 3193.35 1130.65 3193.35 1129.0 3193.35 1126.55 3195.75 1125.2 3196.85 1124.6 3201.05 1123.35 3208.75 1121.1 3208.75 1115.65 3208.75 1109.7 3205.3 1095.2 L3202.2 1083.25 3201.75 1083.3 Q3195.4 1083.6 3191.75 1084.5 3173.05 1088.75 3170.0 1088.75 3165.3 1088.75 3164.0 1087.2 L3163.6 1085.5 3163.6 1085.45 3161.35 1082.9 Q3158.95 1079.95 3157.5 1077.55 L3156.05 1075.0 Q3155.25 1073.8 3154.0 1073.05 3150.95 1071.3 3139.75 1069.65 3128.2 1067.95 3122.35 1062.25 3116.9 1055.3 3112.25 1052.1 L3079.7 1032.05 Q3064.7 1022.9 3059.15 1018.95 L3057.85 1019.25 Q3057.55 1019.25 3056.5 1018.5 3055.2 1017.5 3053.05 1016.85 M1880.2 1008.25 Q1882.1 1010.5 1883.25 1013.65 L1884.2 1018.05 1885.3 1022.55 1887.8 1029.15 Q1891.8 1035.2 1891.8 1039.65 1891.8 1041.05 1890.05 1044.3 L1889.0 1046.0 1889.3 1046.05 1887.35 1048.05 Q1884.95 1049.85 1879.85 1051.3 1873.45 1053.1 1872.3 1053.6 1868.9 1055.15 1868.9 1057.9 1868.9 1066.9 1882.0 1070.2 1888.35 1071.85 1896.75 1071.85 1908.3 1071.85 1914.5 1078.0 1918.55 1082.0 1918.55 1085.0 L1917.65 1094.3 1912.3 1104.5 1912.1 1104.55 Q1909.6 1107.95 1901.0 1116.6 1888.1 1129.5 1883.1 1129.5 1881.65 1129.5 1881.1 1128.5 L1880.85 1127.35 Q1880.85 1126.45 1888.05 1121.1 1896.85 1114.45 1898.6 1112.85 L1907.15 1103.7 1908.8 1102.25 1911.65 1094.75 Q1914.6 1086.8 1914.6 1085.25 1914.6 1081.55 1906.95 1079.15 1899.4 1076.8 1888.0 1076.8 1876.6 1076.8 1869.7 1067.45 1867.5 1064.45 1866.05 1060.95 L1865.0 1057.9 Q1865.0 1053.15 1868.4 1050.75 1870.7 1049.1 1875.9 1047.9 1881.8 1046.6 1883.4 1045.8 L1884.1 1045.45 1885.6 1043.3 Q1887.3 1040.6 1887.3 1039.05 1887.3 1037.35 1885.35 1033.6 L1884.3 1031.55 1884.05 1031.7 1882.35 1026.75 Q1877.85 1013.85 1877.85 1010.0 1877.85 1005.5 1880.2 1008.25 M2279.25 1171.25 Q2281.45 1171.25 2282.9 1172.95 2283.65 1173.75 2283.9 1174.6 2283.9 1175.7 2283.05 1176.25 L2281.75 1176.65 Q2280.95 1176.65 2280.1 1176.0 L2279.3 1175.3 Q2277.8 1175.3 2273.8 1177.0 2269.8 1178.65 2264.05 1178.65 2261.0 1178.65 2254.2 1174.5 L2246.55 1169.8 2237.25 1166.9 2222.35 1162.75 2200.2 1155.4 Q2183.95 1150.1 2177.85 1150.1 L2175.3 1150.7 2172.75 1151.3 Q2171.25 1151.3 2170.6 1150.0 L2170.25 1148.85 Q2170.25 1142.65 2181.95 1145.2 2188.8 1146.7 2219.9 1157.3 2221.55 1157.95 2225.7 1158.75 L2238.1 1161.0 Q2239.75 1161.3 2242.5 1163.25 2245.2 1165.15 2247.05 1165.5 L2254.6 1169.9 Q2261.8 1174.15 2264.05 1174.15 2268.85 1174.15 2272.45 1172.7 2276.05 1171.25 2279.25 1171.25 M2025.3 800.3 L2026.35 799.95 Q2028.25 801.35 2028.25 803.5 2028.25 807.05 2023.9 810.5 2017.35 815.75 2014.85 819.15 2018.35 820.2 2019.6 822.15 2020.35 823.35 2020.35 825.3 2020.35 826.25 2018.8 832.65 L2016.85 840.4 Q2026.65 845.3 2030.35 853.05 L2032.9 859.85 Q2034.35 864.3 2035.6 866.75 2036.45 868.4 2036.9 873.35 2037.25 877.75 2039.3 880.1 2041.7 882.95 2043.55 886.6 2045.65 890.75 2045.65 893.35 2045.65 895.5 2036.1 906.55 2025.85 918.5 2021.05 918.5 L2020.85 918.5 2020.15 917.65 Q2019.8 916.65 2019.1 916.1 L2030.2 905.8 Q2041.55 895.35 2041.55 893.5 2041.55 890.45 2039.05 886.95 L2034.25 880.1 Q2032.75 877.4 2032.2 873.5 L2031.25 866.75 Q2030.65 864.0 2028.25 859.9 L2024.4 853.3 Q2022.25 848.85 2017.05 846.1 2012.9 843.85 2012.9 840.75 2012.9 839.7 2014.6 832.55 L2016.25 825.5 Q2016.25 824.5 2013.35 823.0 2010.4 821.55 2010.4 820.05 2010.4 816.7 2015.5 812.45 2022.2 806.9 2024.25 803.65 L2022.5 802.1 Q2021.85 801.35 2021.8 800.75 L2025.3 800.3 M2020.8 933.05 L2020.8 933.75 Q2020.8 935.45 2020.05 939.2 2019.3 942.9 2019.3 944.15 2019.3 945.55 2021.5 953.75 L2024.05 963.35 Q2025.05 968.45 2029.05 971.45 2035.5 976.25 2052.5 979.75 2059.95 981.25 2060.45 987.95 L2060.45 993.45 Q2060.5 996.55 2061.5 998.1 2063.15 1000.6 2070.75 1007.65 2076.4 1012.9 2076.4 1016.75 2076.4 1018.6 2074.75 1019.65 2072.05 1021.3 2070.1 1024.3 L2070.4 1024.35 2069.75 1024.9 2070.0 1026.3 2081.35 1026.25 Q2089.45 1026.25 2091.7 1027.7 L2092.25 1028.15 Q2097.0 1029.35 2098.25 1030.9 2099.3 1032.2 2099.65 1034.65 L2100.25 1038.75 Q2105.9 1039.95 2111.65 1045.0 2116.6 1049.4 2117.05 1052.3 L2117.25 1052.35 2121.05 1052.25 Q2122.8 1048.85 2132.25 1051.55 2136.65 1052.85 2140.25 1054.8 2147.6 1055.65 2152.15 1058.6 L2158.5 1063.35 2158.35 1063.6 2161.55 1066.15 Q2168.75 1073.05 2168.75 1079.05 L2168.75 1082.45 Q2168.6 1083.75 2168.15 1084.5 L2168.25 1085.9 Q2168.25 1088.35 2163.45 1092.85 2158.35 1097.65 2154.6 1097.65 2152.35 1097.65 2152.35 1095.6 2152.35 1092.5 2158.15 1090.2 2163.9 1087.95 2163.9 1086.15 L2163.9 1086.05 2165.2 1084.5 Q2164.4 1083.5 2164.4 1081.1 L2164.25 1075.0 Q2163.8 1073.8 2158.95 1069.55 L2156.4 1067.2 Q2151.75 1063.95 2142.45 1059.95 L2141.75 1060.0 Q2139.2 1060.0 2135.75 1057.25 2132.3 1054.5 2130.25 1054.5 2126.95 1054.5 2124.75 1055.5 2123.1 1056.5 2122.55 1056.5 L2121.5 1056.2 2118.1 1056.5 Q2114.95 1056.5 2114.0 1055.25 L2113.7 1054.55 Q2112.5 1053.65 2110.6 1051.35 2107.15 1047.05 2106.3 1046.5 L2100.0 1043.15 Q2096.65 1041.35 2096.25 1039.05 2095.2 1033.5 2090.95 1031.05 L2090.3 1031.15 Q2071.6 1031.15 2067.1 1029.15 2065.45 1028.45 2065.35 1027.25 L2065.5 1025.25 Q2065.5 1023.6 2066.35 1023.0 2066.75 1022.1 2067.7 1021.15 L2072.5 1016.85 Q2072.05 1013.75 2064.8 1007.35 2057.7 1001.15 2057.55 997.85 2057.5 996.8 2058.35 993.05 2058.95 990.3 2058.05 988.7 2055.5 984.0 2036.5 980.85 2026.55 979.25 2023.1 973.2 2022.0 971.3 2021.05 967.9 L2019.5 962.85 Q2015.35 947.85 2015.35 944.25 2015.35 941.6 2016.35 936.5 L2016.4 935.65 2017.25 934.75 2018.8 933.2 2020.8 933.05 M2032.7 1181.15 Q2021.15 1191.0 2019.6 1191.0 2018.15 1191.0 2017.6 1190.0 L2017.35 1188.85 2030.75 1175.8 Q2044.15 1164.1 2044.15 1170.1 2044.15 1171.3 2032.7 1181.15 M2136.1 1334.85 Q2137.85 1339.45 2140.35 1344.7 2142.0 1348.7 2142.0 1353.3 2142.0 1357.35 2141.35 1360.25 2140.05 1366.25 2136.5 1366.25 2135.15 1366.25 2134.7 1365.15 L2134.5 1363.9 2136.25 1359.6 Q2138.0 1355.5 2138.0 1353.35 2138.0 1350.8 2135.75 1345.2 L2132.5 1337.0 Q2130.25 1329.95 2126.7 1325.0 L2123.6 1321.5 Q2123.6 1316.95 2127.85 1320.0 2131.6 1322.75 2132.9 1325.55 L2136.1 1334.85 M2160.55 1557.3 Q2164.7 1555.05 2176.3 1553.15 2186.05 1551.6 2191.1 1551.55 2194.15 1551.5 2208.5 1556.4 2217.7 1559.55 2221.2 1561.45 L2222.15 1561.5 Q2223.25 1561.75 2223.8 1562.35 L2223.95 1562.35 Q2224.7 1564.0 2226.35 1564.55 2226.25 1565.5 2225.5 1566.0 2224.9 1566.35 2224.1 1566.35 2223.1 1566.35 2222.55 1565.85 L2222.1 1565.85 Q2220.75 1565.85 2220.2 1565.05 L2209.7 1560.6 Q2198.9 1555.8 2191.6 1555.8 2165.15 1555.8 2153.75 1568.05 2143.0 1579.6 2142.0 1606.55 2141.75 1613.8 2135.05 1635.9 2128.4 1657.75 2128.4 1658.3 2128.4 1659.35 2131.35 1661.75 L2135.05 1664.1 2138.15 1666.6 2142.45 1667.6 Q2153.35 1671.05 2153.35 1677.65 L2151.45 1683.65 Q2148.8 1689.5 2144.9 1689.5 2141.15 1691.6 2135.6 1693.05 L2114.85 1699.35 Q2099.85 1703.85 2093.75 1703.85 2083.85 1703.85 2077.6 1700.7 2073.75 1698.75 2069.05 1693.8 2064.15 1688.7 2060.95 1686.9 2055.25 1683.75 2046.3 1683.75 2018.8 1683.75 1997.0 1690.1 L1983.65 1694.4 1980.65 1695.35 1978.85 1696.3 Q1976.15 1697.4 1973.15 1697.4 1969.0 1697.4 1967.5 1696.0 L1966.4 1695.5 1957.6 1691.15 Q1944.25 1684.75 1932.15 1684.75 1930.45 1684.75 1925.0 1686.9 L1919.3 1689.0 Q1916.6 1689.0 1908.15 1680.85 1902.5 1675.5 1897.1 1669.4 1894.85 1666.95 1890.7 1665.0 1885.4 1662.6 1877.85 1661.5 L1865.55 1658.25 Q1854.15 1655.25 1851.3 1655.25 1844.35 1655.25 1837.7 1662.8 1831.85 1671.0 1830.35 1672.25 1827.2 1674.85 1824.4 1680.8 1821.75 1686.3 1821.75 1689.35 1821.75 1690.25 1823.0 1693.7 L1824.25 1697.15 Q1824.25 1698.05 1823.75 1698.65 1823.15 1699.4 1822.0 1699.4 1819.35 1699.4 1818.3 1694.5 L1817.8 1689.5 Q1817.8 1684.45 1819.55 1679.75 1821.8 1673.7 1826.5 1669.75 1831.0 1665.95 1834.8 1659.35 1839.2 1653.9 1850.55 1650.75 1863.75 1653.25 1876.5 1656.55 1895.4 1661.5 1898.85 1665.05 L1911.1 1676.9 1919.25 1684.4 Q1919.95 1684.4 1924.4 1682.5 1928.8 1680.55 1932.25 1680.55 1942.7 1680.55 1960.2 1687.75 1965.8 1690.05 1971.2 1692.75 L1971.45 1692.9 1972.75 1693.0 1975.55 1691.95 Q1982.9 1689.2 1991.55 1686.9 2018.8 1679.55 2046.6 1679.55 2056.1 1679.55 2062.3 1682.7 2066.1 1684.65 2071.0 1689.6 2076.0 1694.7 2079.35 1696.5 2085.1 1699.65 2094.0 1699.65 2098.6 1699.65 2112.75 1695.6 L2131.25 1690.1 Q2140.1 1687.75 2144.0 1685.6 L2146.2 1683.15 Q2149.4 1679.85 2149.4 1677.5 2149.4 1675.15 2144.25 1673.15 2142.35 1670.8 2135.0 1669.85 L2134.2 1669.75 2132.45 1668.4 Q2127.05 1664.0 2127.05 1663.35 L2127.05 1663.1 Q2124.05 1660.0 2124.05 1658.0 L2131.85 1634.75 Q2139.6 1610.5 2139.5 1596.0 2139.4 1587.2 2141.25 1580.85 2143.7 1572.2 2150.25 1565.1 2154.35 1560.65 2160.55 1557.3 M381.75 1079.45 Q381.6 1078.2 381.05 1077.1 L381.1 1077.0 Q381.65 1076.35 382.75 1075.85 L692.0 1075.85 Q693.85 1076.6 694.65 1077.95 L696.0 1080.2 Q698.35 1082.95 710.3 1083.8 716.9 1084.25 727.75 1086.4 739.6 1088.75 739.6 1090.15 739.6 1091.5 738.75 1091.9 L735.65 1092.25 Q731.85 1092.25 715.6 1089.5 L697.9 1086.25 Q695.1 1085.55 693.8 1084.2 L691.85 1081.9 Q690.7 1080.9 688.65 1080.6 L685.4 1080.0 382.75 1079.8 381.75 1079.45 M509.8 1359.25 L509.3 1362.5 Q508.8 1365.15 508.8 1365.75 508.8 1367.75 511.6 1369.3 514.65 1371.0 515.25 1374.0 L515.9 1378.1 Q516.35 1380.8 516.85 1382.55 L517.75 1387.1 Q518.3 1390.0 519.5 1391.65 523.05 1396.55 535.85 1396.55 537.15 1396.55 537.7 1397.55 L538.05 1398.65 Q538.05 1400.25 537.1 1400.8 535.85 1401.55 531.85 1401.55 521.25 1401.55 515.85 1392.25 512.2 1386.0 511.25 1376.1 511.05 1374.5 508.15 1372.65 505.1 1370.75 504.8 1369.65 504.5 1368.6 504.6 1366.65 L504.8 1363.3 Q505.3 1360.85 505.3 1356.6 505.3 1354.85 504.0 1353.9 500.95 1351.65 491.65 1351.65 490.85 1351.65 490.3 1352.45 L489.1 1354.25 Q487.05 1356.85 482.0 1356.85 478.05 1356.85 470.05 1352.4 463.2 1348.55 462.25 1346.45 461.7 1345.4 461.3 1343.55 L459.2 1333.95 Q454.8 1320.0 438.55 1320.0 438.2 1320.0 436.45 1320.9 434.25 1321.95 433.25 1323.0 431.65 1324.55 425.65 1324.7 L405.8 1324.6 Q385.95 1324.6 368.5 1316.05 L357.2 1310.15 Q351.7 1307.5 348.15 1307.5 346.2 1307.5 343.6 1308.65 340.95 1309.75 337.25 1309.75 331.65 1309.75 328.4 1307.4 326.1 1305.7 326.1 1304.35 326.1 1300.45 329.5 1302.5 334.65 1305.6 335.15 1305.6 340.15 1305.6 342.15 1304.45 344.2 1303.25 348.25 1303.25 352.05 1303.25 357.75 1305.9 L369.2 1311.8 Q386.65 1320.35 405.4 1320.35 431.05 1320.35 433.5 1318.0 L434.0 1316.4 Q434.45 1315.65 438.3 1315.65 453.9 1315.65 460.95 1326.05 466.05 1333.55 466.1 1345.25 L469.55 1347.15 Q478.55 1352.75 479.6 1352.75 484.8 1352.75 486.6 1350.1 488.45 1347.4 491.65 1347.4 506.05 1347.4 509.3 1352.9 511.0 1355.75 509.8 1359.25 M973.4 1107.6 Q972.9 1109.8 972.9 1110.4 972.9 1112.9 974.9 1121.7 L976.85 1130.75 Q976.85 1131.6 976.4 1132.25 975.85 1133.0 974.9 1133.0 971.1 1133.0 969.95 1118.9 L969.55 1104.75 969.5 1104.0 969.4 1103.65 969.55 1103.5 Q969.55 1103.3 968.8 1103.3 963.05 1103.3 957.6 1108.45 956.2 1109.8 947.95 1119.85 941.6 1127.6 935.9 1131.25 927.8 1136.4 917.5 1136.4 913.5 1136.4 910.25 1135.1 907.0 1133.75 901.1 1133.75 891.75 1133.75 883.05 1139.1 875.85 1144.6 874.35 1144.75 L870.75 1145.2 873.0 1141.15 874.1 1140.2 Q876.2 1139.4 882.2 1134.45 890.15 1129.5 901.15 1129.5 908.15 1129.5 911.0 1130.9 913.85 1132.25 917.5 1132.25 929.25 1132.25 939.55 1122.8 942.8 1119.85 945.6 1116.2 L948.0 1112.85 Q957.15 1102.85 965.4 1100.0 973.9 1097.1 973.9 1104.8 L973.4 1107.6 M790.0 1112.6 L788.5 1113.05 Q786.25 1113.05 785.25 1110.65 L784.75 1108.35 784.8 1107.25 787.4 1106.5 787.75 1106.8 Q790.75 1109.8 790.75 1111.1 790.75 1112.1 790.0 1112.6 M793.6 1155.75 L788.85 1162.0 Q785.75 1166.05 783.9 1169.05 L783.45 1169.25 782.75 1170.55 Q781.1 1173.65 780.8 1175.0 L785.25 1174.6 785.75 1174.6 789.55 1174.3 Q790.65 1174.95 792.75 1175.1 792.65 1176.15 792.0 1176.6 L790.5 1177.05 Q789.35 1179.1 782.75 1179.1 778.05 1179.1 776.75 1177.35 L776.35 1175.5 Q776.35 1172.3 778.75 1168.9 L779.1 1168.0 Q779.65 1166.9 780.4 1166.9 L780.4 1166.85 782.5 1163.25 Q788.15 1153.8 791.35 1152.9 791.65 1151.65 793.25 1151.75 795.25 1151.9 795.25 1153.75 795.25 1154.35 794.75 1155.0 794.25 1155.6 793.6 1155.75 M977.35 1664.4 Q976.0 1664.95 970.65 1665.95 966.05 1666.8 964.1 1668.15 961.2 1670.15 961.5 1674.1 962.0 1683.05 960.4 1689.0 959.1 1694.0 957.45 1696.2 954.15 1700.7 945.75 1704.25 937.25 1706.7 930.4 1708.9 917.1 1713.3 917.1 1715.75 917.1 1716.4 917.75 1718.65 L918.35 1721.55 Q918.35 1724.9 915.15 1729.15 911.6 1733.9 905.55 1737.55 901.4 1740.0 891.35 1747.85 887.2 1751.05 880.85 1751.05 872.6 1751.05 868.25 1747.85 866.4 1746.5 865.7 1745.25 L864.85 1745.7 Q861.4 1747.7 858.55 1749.95 849.3 1757.15 849.3 1764.0 849.3 1765.2 851.3 1770.05 853.3 1774.85 853.3 1777.9 853.3 1781.3 849.6 1783.4 845.85 1785.55 845.85 1787.85 L846.35 1795.3 846.85 1804.15 Q846.85 1807.5 847.4 1815.7 847.15 1822.85 843.0 1826.15 842.0 1827.0 803.9 1844.9 L803.65 1844.9 803.65 1845.1 Q803.65 1845.6 805.15 1849.05 806.6 1852.45 806.6 1853.5 806.6 1857.0 803.15 1861.05 799.65 1865.05 799.65 1867.1 799.65 1867.95 803.35 1875.0 L807.6 1883.1 Q808.6 1885.75 808.6 1891.3 810.6 1893.05 821.1 1898.6 L825.15 1896.8 Q828.9 1895.0 832.9 1895.0 840.6 1895.0 841.4 1903.15 841.75 1907.2 840.6 1911.3 L847.8 1916.7 Q848.45 1915.6 850.05 1915.25 L860.0 1914.9 Q863.3 1914.9 871.55 1909.65 881.45 1902.9 886.3 1900.0 894.85 1894.95 899.05 1895.35 904.5 1895.8 904.5 1904.9 L904.0 1909.75 903.5 1914.6 Q903.5 1927.55 912.4 1932.2 914.8 1933.4 921.45 1935.6 927.95 1937.75 931.6 1939.75 938.7 1943.55 947.3 1946.8 L959.45 1951.3 Q964.95 1953.5 967.25 1955.85 970.0 1958.65 970.0 1963.15 970.0 1964.1 969.0 1966.7 968.0 1969.3 968.0 1969.85 968.0 1970.7 970.0 1974.95 L972.0 1979.25 Q972.0 1982.95 974.2 1985.55 L976.0 1987.55 978.8 1987.5 Q982.35 1987.9 991.15 1990.6 998.35 1991.5 1000.2 1993.95 1001.3 1995.35 1001.6 1998.65 1002.95 2002.75 1007.25 2008.2 1010.65 2012.55 1010.65 2016.0 1010.65 2018.5 1007.65 2028.1 L1008.4 2030.1 Q1009.15 2031.9 1009.15 2032.9 L1008.65 2036.1 1008.15 2039.25 Q1008.15 2041.35 1010.65 2044.65 1013.15 2048.0 1013.15 2050.5 1013.15 2052.85 1010.75 2058.5 1008.3 2064.15 1008.3 2065.55 1008.3 2068.8 1013.65 2071.05 L1017.45 2072.5 Q1019.7 2071.55 1025.8 2073.2 1035.3 2075.8 1037.25 2079.35 L1038.65 2085.0 Q1039.4 2088.2 1039.5 2090.55 1039.7 2095.2 1045.45 2097.3 1048.55 2098.45 1053.85 2099.6 1056.95 2100.9 1057.2 2105.2 1057.3 2107.5 1056.8 2110.6 1056.8 2118.5 1063.05 2121.0 L1067.3 2122.5 Q1068.8 2123.15 1069.15 2124.3 1070.75 2125.85 1070.75 2128.05 1070.75 2141.9 1067.75 2148.2 1065.7 2152.45 1060.2 2155.8 1053.45 2159.95 1050.5 2163.4 1044.7 2170.15 1040.8 2183.5 1046.3 2187.6 1049.9 2191.8 1054.05 2196.6 1055.75 2198.05 1058.6 2200.45 1066.9 2205.25 1075.3 2210.1 1077.3 2211.8 1082.9 2216.4 1085.3 2219.2 1088.5 2222.9 1089.0 2226.35 L1089.75 2234.85 1090.05 2240.65 1089.8 2243.5 Q1089.25 2245.1 1087.35 2245.1 1085.9 2245.1 1085.35 2244.1 1085.1 2243.6 1085.1 2243.0 1085.1 2242.4 1085.6 2241.8 1086.1 2241.2 1086.1 2240.55 1086.1 2231.0 1084.3 2226.5 1081.3 2219.0 1071.25 2211.75 L1059.8 2205.5 Q1051.15 2200.85 1049.85 2198.3 1047.65 2193.85 1041.3 2188.9 L1035.5 2184.3 Q1035.5 2182.7 1041.55 2171.5 1048.15 2159.15 1052.1 2155.85 1058.9 2150.6 1061.3 2148.4 1065.35 2144.7 1065.25 2141.75 1065.25 2139.2 1066.0 2134.5 1066.75 2129.85 1066.75 2128.1 L1066.4 2126.9 Q1060.15 2126.65 1056.1 2121.15 1053.15 2117.15 1052.85 2113.75 1052.75 2112.2 1053.6 2109.85 1054.5 2107.45 1054.4 2106.55 1054.15 2103.15 1043.4 2100.6 1035.45 2098.7 1034.55 2094.5 1034.3 2093.15 1034.6 2090.75 L1035.0 2087.0 Q1034.75 2080.35 1025.4 2077.75 L1019.0 2076.3 1017.2 2075.7 1016.95 2076.05 1012.1 2074.5 Q1004.25 2071.55 1004.25 2065.3 1004.25 2062.5 1006.45 2057.65 1008.65 2052.75 1008.65 2050.6 1008.65 2048.5 1006.6 2046.4 1004.45 2044.2 1004.25 2041.5 1004.15 2040.0 1004.6 2036.75 L1005.05 2033.0 Q1003.75 2028.75 1003.75 2028.1 1003.75 2026.0 1005.15 2021.1 L1006.55 2015.8 Q1006.55 2012.4 1003.8 2009.05 999.25 2003.55 998.0 2001.3 997.6 2000.6 997.55 1999.45 L997.2 1997.8 Q996.2 1996.0 989.3 1994.6 L978.1 1992.85 Q973.95 1992.05 973.9 1989.85 971.7 1989.3 967.75 1979.9 L964.0 1969.85 Q964.0 1968.1 964.75 1966.3 965.5 1964.5 965.5 1963.35 965.5 1959.6 961.25 1957.2 958.5 1955.65 946.15 1951.35 942.7 1950.15 934.0 1945.45 926.1 1941.15 921.25 1939.85 911.8 1937.3 907.15 1934.35 902.8 1931.55 902.05 1928.05 L900.15 1920.8 Q899.5 1918.35 899.5 1914.6 L900.0 1909.75 900.5 1904.9 900.0 1902.0 Q899.25 1899.1 897.85 1899.1 894.25 1899.1 890.5 1902.15 888.2 1904.0 883.1 1908.85 871.75 1918.6 854.75 1918.6 L851.8 1919.1 852.15 1919.65 852.25 1920.1 855.2 1922.45 856.2 1922.0 858.25 1925.0 858.35 1925.15 858.25 1925.15 Q860.75 1927.55 860.75 1928.4 L860.65 1929.2 860.75 1931.6 859.75 1955.1 860.25 1972.25 Q860.55 1979.8 865.2 1982.45 867.65 1983.85 868.25 1984.55 869.65 1986.15 869.65 1989.35 869.65 1991.75 868.45 1993.45 L866.0 1996.1 Q862.55 1999.5 863.25 2005.35 L863.7 2008.45 Q863.85 2011.2 862.8 2013.25 859.6 2019.65 845.8 2019.65 L845.2 2019.6 845.3 2016.65 845.3 2016.05 849.7 2015.55 Q856.6 2014.95 858.25 2011.75 858.8 2010.6 858.95 2008.25 L859.25 2004.25 Q859.25 1995.5 862.5 1992.9 L864.75 1991.5 Q865.75 1990.75 865.75 1989.35 863.5 1988.7 861.2 1986.55 856.55 1982.25 856.15 1972.25 L855.75 1955.5 Q855.6 1944.75 855.9 1939.1 L856.35 1935.0 856.75 1930.9 857.45 1929.8 847.0 1921.6 835.4 1912.3 Q835.4 1911.6 836.4 1909.4 837.4 1907.2 837.4 1904.8 837.4 1902.9 837.0 1901.9 836.0 1899.25 832.8 1899.25 829.8 1899.25 825.95 1901.15 822.05 1903.0 821.25 1903.0 819.0 1903.0 812.7 1899.7 806.1 1896.25 805.0 1894.15 804.3 1892.8 804.45 1889.75 804.6 1886.6 804.0 1885.25 L799.55 1876.3 Q795.75 1868.6 795.75 1867.35 795.75 1862.55 799.15 1859.0 802.5 1855.45 802.5 1853.55 799.65 1846.55 799.65 1845.15 799.65 1841.8 801.65 1841.8 L802.1 1841.85 Q804.2 1839.05 817.15 1832.65 829.95 1826.35 835.9 1824.3 840.75 1822.7 842.25 1814.65 842.85 1811.4 842.85 1804.4 L841.85 1788.05 Q841.85 1785.4 845.45 1781.6 L849.0 1777.65 Q849.0 1776.65 847.2 1771.4 845.35 1766.15 845.35 1764.05 845.35 1755.2 856.55 1746.45 860.95 1742.95 864.25 1742.15 L866.0 1742.0 Q866.5 1741.6 867.25 1741.6 867.95 1741.6 868.75 1742.4 L870.7 1744.1 Q874.05 1746.6 880.85 1746.6 886.2 1746.6 888.7 1745.4 890.45 1744.6 891.8 1742.45 893.6 1739.65 894.75 1738.6 897.25 1736.25 902.0 1734.65 906.55 1733.15 910.6 1728.4 914.35 1724.05 914.35 1721.3 912.85 1717.25 912.85 1716.05 912.85 1711.7 919.5 1708.5 922.75 1706.9 934.25 1703.4 944.6 1700.2 949.2 1697.45 956.15 1693.35 956.55 1687.4 957.05 1678.55 957.05 1671.0 958.5 1665.5 969.5 1660.75 973.95 1658.85 977.05 1658.6 980.4 1658.35 980.4 1660.35 980.4 1663.1 977.35 1664.4 M752.0 1656.0 Q748.3 1662.75 741.6 1662.75 740.15 1662.75 739.75 1661.65 739.6 1661.3 739.6 1660.4 741.7 1659.1 744.0 1657.45 748.6 1654.05 749.55 1651.65 751.05 1648.0 752.55 1646.15 754.5 1643.9 754.5 1647.8 754.5 1651.4 752.0 1656.0" fill="#9b9e54" fill-rule="evenodd" stroke="none"/>
  </g>
</svg>
