<?xml version="1.0" encoding="UTF-8" standalone="no"?>
<svg xmlns:xlink="http://www.w3.org/1999/xlink" xmlns:ffdec="http://www.free-decompiler.com/flash" ffdec:objectType="shape" height="602.35px" width="655.85px" xmlns="http://www.w3.org/2000/svg">
  <g transform="matrix(1.0, 0.0, 0.0, 1.0, -45.9, -112.1)">
    <path d="M678.6 183.35 L689.1 184.65 Q691.2 184.85 693.6 185.85 695.35 186.6 696.0 187.1 701.2 191.45 701.65 194.7 701.95 196.85 701.25 202.25 701.25 205.95 700.4 209.65 699.5 213.35 699.5 214.1 L699.65 215.1 Q698.75 218.1 698.75 220.95 L698.9 223.6 Q699.05 225.1 699.35 226.45 699.15 228.2 698.1 229.8 696.5 232.1 693.75 232.1 691.5 232.1 688.15 229.8 684.75 227.45 681.6 227.45 678.35 227.45 678.3 231.8 678.3 234.0 678.9 236.3 678.9 250.2 669.9 255.95 L663.7 259.1 Q660.9 260.55 660.9 262.2 666.45 276.15 666.45 277.55 666.45 281.9 662.75 284.05 L660.15 285.65 Q659.0 286.7 659.0 288.3 659.0 290.05 659.95 292.25 660.9 294.45 660.9 297.15 660.9 300.75 659.55 302.75 657.9 305.1 652.65 308.15 648.4 310.65 642.65 309.65 637.75 308.8 633.9 312.5 L629.4 317.0 Q624.8 321.95 619.0 324.6 616.0 325.95 609.8 327.55 604.95 328.8 603.25 330.25 600.75 332.35 600.75 336.95 600.75 340.5 606.55 344.1 609.85 346.15 617.1 350.4 620.7 353.1 621.9 358.1 L623.55 366.2 Q624.2 368.1 628.5 369.0 633.95 370.1 635.75 371.3 637.15 372.2 638.7 375.3 640.3 378.5 641.0 379.05 L647.35 380.8 Q653.1 382.3 655.05 384.35 657.95 387.4 658.3 388.45 L658.4 392.25 Q658.4 397.0 653.65 400.1 650.8 401.95 643.25 404.45 635.65 407.0 632.8 408.85 628.05 411.9 628.05 416.7 628.05 421.7 634.9 433.45 641.7 445.2 641.7 450.95 641.7 453.15 641.05 455.1 640.2 457.5 638.55 458.0 L637.15 459.7 Q634.55 462.55 631.25 464.3 628.9 465.65 627.9 468.9 627.4 470.5 627.05 473.9 626.25 483.35 614.4 494.85 613.95 495.3 600.35 501.8 588.3 507.55 588.3 510.3 588.3 517.7 597.9 527.95 L604.5 535.25 Q607.5 539.1 607.5 541.95 607.5 544.75 604.9 547.8 L598.85 553.8 Q597.8 554.85 586.25 557.75 574.95 560.55 572.45 560.55 569.35 560.55 565.4 556.8 L557.85 548.6 Q546.8 536.6 535.7 536.6 534.2 536.6 533.7 536.95 L532.3 537.7 512.25 538.8 Q461.25 538.8 441.05 530.65 435.2 529.5 433.85 526.7 429.1 523.1 428.85 518.5 L421.85 517.95 Q418.85 517.95 414.05 520.0 409.25 522.0 404.25 522.0 396.0 522.0 376.2 509.85 368.75 505.3 363.0 501.0 L359.65 498.35 Q356.75 498.05 355.3 496.8 353.8 495.55 353.35 492.6 L352.6 487.1 Q351.9 483.75 349.7 481.5 L344.5 478.2 Q340.75 476.05 340.05 474.15 339.9 471.6 339.0 469.85 337.25 466.4 332.25 466.4 327.9 466.4 324.45 469.7 L322.3 471.65 322.1 472.1 Q320.85 474.9 320.85 476.3 320.85 482.15 326.9 489.2 336.45 500.4 338.55 503.85 340.9 507.8 344.55 517.45 347.55 525.4 349.95 529.4 359.35 530.7 364.3 531.95 370.55 533.55 371.1 535.35 371.35 536.25 371.1 539.3 370.85 542.7 371.1 544.45 372.05 550.85 380.6 550.85 389.5 550.85 403.4 538.6 L413.25 530.2 Q418.35 526.35 421.7 526.35 427.75 526.35 429.8 532.9 430.9 536.35 431.3 541.7 432.65 546.05 437.2 549.75 440.75 552.65 447.15 555.8 474.15 569.3 474.15 581.0 474.15 583.25 468.2 591.95 462.7 599.95 461.55 600.8 455.95 605.1 454.35 610.7 453.45 613.95 453.0 620.4 452.65 622.45 449.9 624.7 446.3 627.65 445.55 628.65 444.95 629.5 443.7 633.8 442.75 637.15 440.45 638.4 434.1 641.9 430.8 644.95 429.0 646.55 427.5 648.45 426.25 649.6 423.45 649.9 L411.65 650.15 Q401.45 650.15 391.25 658.65 386.15 662.95 382.7 667.55 381.3 669.0 380.35 672.7 379.3 676.85 378.75 677.75 377.15 680.3 373.9 681.05 367.9 682.4 362.7 684.9 360.4 685.95 356.65 689.55 352.6 693.35 350.75 694.4 L340.8 697.85 330.3 701.25 Q321.15 705.05 308.5 709.3 293.3 714.45 289.5 714.45 274.15 714.45 269.8 694.1 268.65 688.7 267.8 678.3 267.1 669.45 266.25 667.35 261.7 656.0 249.5 637.05 L238.35 620.5 234.75 616.8 Q226.9 608.45 224.0 603.75 221.65 599.9 221.3 593.25 L221.1 581.85 Q220.4 572.3 212.05 559.45 205.4 549.3 194.7 538.1 188.75 531.85 185.25 526.4 182.15 521.6 180.0 515.75 179.05 513.25 171.45 506.2 164.4 499.6 163.2 493.95 162.2 489.25 156.7 471.65 152.7 459.0 152.7 450.35 152.7 445.2 154.1 438.45 155.45 431.75 157.5 426.9 158.4 424.75 159.1 421.05 159.8 416.85 160.25 414.8 160.9 411.65 162.05 409.5 L162.0 409.05 Q162.0 406.65 162.9 404.0 163.8 401.35 163.8 396.9 163.8 392.1 162.0 387.15 159.0 378.9 152.55 378.9 147.65 378.9 137.95 383.7 129.2 388.5 128.75 388.5 126.75 388.5 119.05 382.8 111.3 377.1 109.5 377.1 107.0 377.1 102.75 380.65 98.45 384.15 94.85 384.15 90.25 384.15 80.85 378.9 L68.4 371.45 Q62.9 368.45 60.45 363.15 59.85 361.9 57.65 353.9 57.0 351.65 54.05 345.1 51.8 340.15 51.45 335.75 50.9 328.6 48.3 325.6 45.9 322.85 45.9 318.05 45.9 311.15 49.25 305.75 51.7 301.8 55.6 299.5 L56.45 298.0 Q59.05 294.2 63.5 294.2 68.4 294.2 73.9 301.9 76.8 305.95 78.1 307.2 80.55 309.6 83.1 309.6 95.6 309.6 102.85 307.75 107.8 306.55 112.15 303.75 117.15 300.5 119.3 299.75 124.25 297.9 132.75 297.9 146.2 297.9 171.5 304.3 196.8 310.65 203.75 310.65 210.2 310.65 215.35 306.45 219.65 302.9 219.65 300.35 219.65 293.5 208.8 288.5 L201.3 284.9 Q197.9 282.8 197.9 280.35 197.9 274.5 220.95 280.1 229.05 282.05 237.55 284.85 245.15 287.35 246.65 288.3 251.35 291.45 255.6 291.05 260.35 290.6 265.1 292.95 266.1 293.45 268.6 295.85 L271.5 298.2 Q281.15 300.55 284.3 304.5 L286.4 306.65 Q287.85 307.5 291.3 307.5 293.3 307.5 298.3 304.9 303.35 302.25 305.6 302.25 312.7 302.25 316.2 315.75 317.95 322.55 318.3 329.7 318.3 333.95 316.0 343.4 313.65 352.85 313.65 353.9 313.65 358.05 324.25 363.45 335.6 369.3 346.85 369.3 L346.95 369.3 347.15 369.3 Q349.85 369.3 353.2 371.35 356.5 373.35 359.55 373.35 368.5 373.35 370.95 368.55 371.7 367.0 371.7 362.25 371.7 354.65 368.9 348.9 367.0 345.1 362.7 340.35 357.85 335.05 356.5 332.85 353.7 328.25 353.7 322.65 353.7 318.15 356.4 314.5 360.05 309.65 367.2 309.15 362.7 305.5 361.2 303.65 358.65 300.45 359.1 297.0 355.8 298.25 352.1 297.85 344.65 297.0 342.5 288.6 341.95 286.4 337.15 284.2 330.85 281.3 330.45 281.0 322.25 274.55 319.95 271.5 317.1 267.7 317.1 262.05 L317.1 259.3 Q317.4 257.7 319.15 256.6 323.8 253.55 341.6 251.85 340.85 251.05 340.4 249.8 340.05 248.75 340.05 247.85 340.05 244.9 341.95 242.7 343.8 240.5 343.8 239.45 343.8 238.6 337.15 235.6 330.3 232.5 327.8 232.5 L318.35 233.05 Q314.95 235.4 311.05 237.75 301.85 243.3 298.4 243.3 292.9 243.3 290.5 240.65 289.1 239.1 287.85 234.65 286.6 230.15 284.9 228.2 282.15 224.95 276.15 224.1 264.5 222.45 260.4 215.5 258.15 211.65 258.15 205.1 L258.2 203.0 258.15 201.35 Q258.15 196.7 259.35 192.45 259.45 188.0 260.75 185.4 263.5 180.0 271.4 180.0 275.65 180.0 277.9 181.35 L280.8 183.3 Q282.65 176.2 287.15 170.4 295.9 158.9 310.85 158.9 317.3 158.9 327.45 165.25 337.55 171.6 344.9 171.6 351.4 171.6 354.25 170.2 357.1 168.8 359.6 168.8 363.2 168.8 365.85 171.5 368.5 174.15 371.25 174.15 373.6 174.15 376.6 173.35 L381.0 172.55 Q384.6 172.55 389.6 175.9 L394.65 179.25 Q403.15 179.25 409.5 177.85 414.75 176.7 415.8 175.35 412.6 172.85 408.9 171.05 L403.6 168.65 Q399.0 166.45 399.0 161.6 399.0 158.95 402.05 156.3 403.8 154.75 408.75 151.65 404.35 148.0 403.4 145.8 402.75 144.35 402.75 139.95 402.75 131.7 413.45 128.95 419.1 127.55 427.55 127.05 429.4 126.6 432.5 124.5 435.55 122.45 438.6 121.8 454.1 118.4 461.25 119.65 463.4 120.05 464.6 120.75 L466.5 119.1 468.6 117.05 Q469.95 115.75 471.0 115.25 476.75 112.45 483.15 112.15 489.9 111.8 495.5 114.45 503.45 116.2 504.4 121.75 504.95 124.85 503.9 130.4 503.9 132.9 510.15 132.8 L519.05 132.15 Q526.5 132.15 530.75 136.65 L533.85 139.75 Q535.7 141.15 538.25 141.15 542.6 141.15 551.05 136.35 559.55 131.55 565.95 131.55 568.05 131.55 570.1 136.2 L572.8 138.35 577.6 143.25 Q580.4 146.1 581.75 146.75 L593.2 151.6 Q602.7 155.8 605.4 158.55 606.35 159.5 607.35 161.9 608.45 164.6 609.4 165.85 613.05 170.6 624.0 171.6 640.5 173.05 650.1 176.35 655.6 178.2 657.95 180.4 L660.15 182.15 678.6 183.35 M455.2 530.55 L454.95 530.7 455.15 530.75 455.2 530.55 M343.6 525.9 L344.15 526.3 343.95 525.8 343.6 525.9" fill="#1f6600" fill-rule="evenodd" stroke="none"/>
  </g>
</svg>
