<?xml version="1.0" encoding="UTF-8" standalone="no"?>
<svg xmlns:xlink="http://www.w3.org/1999/xlink" xmlns:ffdec="http://www.free-decompiler.com/flash" ffdec:objectType="shape" height="362.2px" width="426.3px" xmlns="http://www.w3.org/2000/svg">
  <g transform="matrix(1.0, 0.0, 0.0, 1.0, 213.45, 184.7)">
    <path d="M72.75 -17.7 Q73.8 -18.5 85.55 -21.95 97.3 -25.4 98.9 -25.4 108.15 -25.4 111.25 -23.5 112.95 -22.5 112.95 -20.25 112.95 -16.9 110.8 -14.45 108.45 -11.8 107.9 -6.45 107.65 -3.85 105.4 0.35 103.15 4.5 102.95 6.35 102.55 10.7 98.3 19.7 94.25 28.25 94.25 32.85 94.25 36.2 89.55 43.85 84.25 52.45 83.7 54.3 L84.55 54.95 Q85.4 55.35 86.4 55.35 87.8 55.35 90.7 53.75 93.55 52.1 97.05 52.1 100.4 52.1 104.1 53.5 107.75 54.9 108.15 54.9 L111.35 53.85 Q115.25 52.8 119.1 52.8 133.9 52.8 143.0 59.25 146.15 61.45 148.05 64.1 149.55 66.15 149.55 67.1 149.55 69.1 147.1 71.4 144.6 73.7 144.6 74.0 L145.2 77.25 145.8 80.45 Q145.8 84.25 143.05 87.5 140.25 90.75 140.25 91.65 140.25 93.0 142.75 96.75 145.2 100.45 145.2 103.55 L142.1 114.4 Q138.7 125.6 137.85 130.35 L145.05 136.5 Q149.5 140.4 151.5 143.4 L152.35 146.3 Q152.9 148.8 153.3 149.4 157.15 148.6 162.45 150.9 168.25 153.45 169.2 153.45 170.45 153.45 179.25 148.15 188.05 142.8 192.65 142.8 204.6 142.8 209.85 152.7 212.85 158.35 212.85 163.85 212.85 167.3 211.6 171.3 209.6 177.5 205.65 177.5 202.05 177.5 200.55 174.55 199.65 172.8 198.95 168.05 198.25 163.35 197.25 161.5 195.65 158.55 191.9 158.55 189.2 158.55 188.25 159.35 187.95 159.65 187.4 161.05 186.5 163.55 179.55 163.55 177.7 163.55 177.1 165.55 176.85 166.35 176.65 169.9 176.3 176.25 171.8 176.25 L168.45 175.95 168.35 175.6 167.55 175.65 Q167.15 175.65 162.75 171.6 158.3 167.4 153.3 166.95 136.75 165.2 132.0 160.8 130.75 159.7 127.45 152.3 L125.2 147.0 124.0 147.4 Q123.55 142.35 119.75 141.75 L115.3 141.35 Q112.5 140.95 110.7 139.5 108.1 137.35 106.35 134.15 104.85 131.35 104.85 129.45 104.85 127.75 105.65 125.9 L106.4 123.6 Q106.4 122.65 100.9 117.15 94.5 110.85 91.8 104.85 87.45 95.15 75.8 90.9 69.35 88.55 59.1 87.75 41.55 86.3 36.7 79.95 35.95 78.95 33.85 74.65 32.35 71.5 30.05 69.95 L23.55 67.25 Q17.4 64.65 15.6 63.0 14.5 60.1 13.3 58.1 11.05 54.3 5.75 54.3 3.45 54.3 1.75 55.4 L-1.2 57.85 Q-5.5 61.4 -13.35 61.4 L-22.5 60.25 Q-32.05 58.45 -34.7 55.2 -36.5 53.0 -39.2 51.2 -42.25 49.15 -45.3 48.5 -61.5 45.1 -66.0 40.55 L-68.7 38.1 Q-70.5 37.2 -75.05 37.2 L-80.05 34.0 Q-86.35 30.35 -93.5 28.2 -97.85 26.9 -100.8 22.7 -102.95 19.6 -102.95 18.15 L-102.95 18.0 -107.2 14.5 -114.6 7.7 Q-116.0 6.15 -117.3 2.45 -118.5 -1.1 -118.5 -3.35 -118.5 -9.4 -115.75 -14.05 -114.3 -16.5 -108.85 -22.95 -110.75 -24.65 -111.9 -28.45 L-113.15 -33.85 Q-113.75 -36.85 -114.3 -37.8 -115.3 -39.65 -119.15 -44.85 -122.55 -49.5 -124.1 -53.0 L-128.05 -61.6 Q-130.8 -66.9 -133.4 -68.7 -135.7 -70.3 -144.9 -74.15 -149.55 -76.15 -149.55 -80.4 -149.55 -84.4 -147.65 -87.6 -145.8 -90.75 -145.8 -91.8 -145.8 -93.45 -149.75 -99.55 L-154.2 -106.25 Q-155.55 -108.8 -159.6 -109.55 -163.0 -110.2 -163.2 -113.4 -163.35 -115.7 -162.9 -120.35 -162.9 -121.1 -166.0 -121.2 -169.15 -122.45 -169.4 -128.75 -169.45 -130.25 -170.1 -133.55 L-170.15 -133.9 -170.4 -133.8 -172.95 -145.5 Q-177.4 -161.25 -182.4 -161.25 -186.95 -161.25 -189.45 -156.85 -190.75 -154.65 -191.1 -152.3 -191.1 -143.55 -184.25 -133.4 -180.55 -127.85 -179.6 -126.0 -177.45 -121.85 -177.45 -118.05 -177.45 -116.35 -178.35 -113.55 -179.3 -110.75 -179.3 -109.85 -179.3 -108.2 -177.7 -107.0 -177.0 -106.45 -174.15 -105.0 -168.95 -102.4 -168.75 -98.55 -168.65 -96.6 -167.45 -92.45 -166.25 -88.45 -166.25 -87.15 L-168.15 -76.85 Q-168.15 -68.15 -160.35 -61.8 L-155.05 -57.8 Q-152.6 -55.9 -152.6 -54.6 L-157.5 -48.9 Q-162.4 -43.4 -162.6 -43.4 -165.05 -43.4 -166.95 -47.15 L-168.9 -52.1 Q-169.55 -53.7 -171.55 -54.9 -175.2 -57.05 -178.5 -59.85 -184.05 -64.7 -185.45 -68.75 -186.15 -70.9 -186.15 -77.1 L-185.9 -82.2 Q-185.1 -85.45 -181.8 -87.8 -189.85 -93.25 -201.95 -97.1 -205.35 -98.2 -206.5 -99.5 -207.9 -101.15 -207.9 -105.05 L-207.55 -108.75 Q-207.2 -110.55 -207.2 -112.5 -207.2 -115.4 -201.6 -117.95 -196.05 -120.5 -196.05 -121.55 -196.05 -123.6 -196.7 -125.6 L-196.7 -126.0 Q-196.7 -129.4 -199.2 -131.05 -201.45 -132.55 -204.75 -132.2 L-206.75 -131.85 Q-210.5 -136.9 -212.25 -151.1 -213.6 -162.1 -213.45 -173.45 -213.45 -176.1 -212.6 -178.45 -211.7 -180.95 -210.05 -182.0 L-209.9 -182.95 -206.6 -183.9 -201.5 -184.35 -194.45 -184.6 -194.1 -184.65 -194.05 -184.55 Q-187.0 -184.0 -177.75 -180.9 -153.15 -175.25 -145.1 -170.35 -143.0 -169.05 -140.25 -168.8 -137.05 -168.45 -124.8 -168.45 L-121.5 -168.8 -118.5 -169.4 -112.15 -169.65 -105.45 -170.15 Q-103.9 -171.3 -102.05 -171.3 -94.9 -171.3 -89.05 -168.85 -83.15 -166.4 -81.9 -162.9 -81.05 -160.7 -77.9 -158.25 L-73.35 -154.5 Q-72.6 -153.6 -71.8 -150.1 -70.75 -145.5 -70.1 -143.65 -67.0 -135.3 -58.95 -135.3 -58.2 -135.3 -57.5 -136.35 L-56.05 -138.7 Q-53.55 -142.1 -48.05 -142.1 -32.5 -142.1 -26.35 -129.6 -24.45 -125.8 -23.4 -120.65 L-22.35 -115.7 Q-19.55 -111.7 -18.65 -108.35 L-16.85 -101.75 Q-14.05 -94.7 -8.9 -91.6 L-8.7 -91.45 -8.65 -92.25 -8.4 -92.75 Q-3.95 -91.55 -2.45 -89.8 -1.2 -88.4 -1.2 -85.5 -1.2 -82.95 -4.65 -79.15 L-8.1 -75.15 -7.45 -72.0 Q-6.8 -69.65 -6.8 -68.9 L-11.65 -54.4 Q-16.55 -39.15 -16.55 -32.1 -16.55 -28.75 -10.45 -14.85 L-4.35 -1.4 Q-4.35 -0.7 -4.95 1.0 -5.55 2.7 -5.55 3.45 -5.55 4.4 -4.3 6.6 L-2.6 9.3 -1.8 10.5 4.95 13.05 Q6.8 13.7 10.75 17.7 14.2 21.2 16.85 21.2 L33.75 15.5 36.55 16.1 39.35 16.7 Q42.3 16.7 44.85 14.4 47.55 11.9 48.95 11.75 59.0 10.5 60.3 9.95 61.5 9.45 62.45 7.4 64.6 5.0 64.7 1.3 64.85 -3.4 65.55 -5.1 L68.05 -11.65 Q69.7 -15.35 72.75 -17.7" fill="#1f6600" fill-rule="evenodd" stroke="none"/>
  </g>
</svg>
