<?xml version="1.0" encoding="UTF-8" standalone="no"?>
<svg xmlns:xlink="http://www.w3.org/1999/xlink" xmlns:ffdec="http://www.free-decompiler.com/flash" ffdec:objectType="shape" height="40.0px" width="40.0px" xmlns="http://www.w3.org/2000/svg">
  <g transform="matrix(1.0, 0.0, 0.0, 1.0, 20.0, 20.0)">
    <path d="M10.0 -20.0 Q20.0 -20.0 20.0 -10.0 L20.0 10.0 Q20.0 20.0 10.0 20.0 L-10.0 20.0 Q-20.0 20.0 -20.0 10.0 L-20.0 -10.0 Q-20.0 -20.0 -10.0 -20.0 L10.0 -20.0 M0.0 -14.0 L0.0 -13.85 -0.05 -14.0 -0.05 -13.75 Q-2.3 -1.85 -4.05 1.45 L-4.85 2.6 Q-6.7 4.55 -6.65 7.2 -6.7 10.0 -4.7 12.0 -2.75 13.9 -0.05 13.95 L0.0 13.95 Q2.7 13.9 4.65 12.0 6.65 10.0 6.65 7.2 6.65 4.8 5.2 3.0 L4.15 1.75 Q2.35 -1.3 0.0 -13.75 L0.0 -14.0" fill="#000000" fill-rule="evenodd" stroke="none"/>
    <path d="M0.0 -14.0 L0.0 -13.75 Q2.35 -1.3 4.15 1.75 L5.2 3.0 Q6.65 4.8 6.65 7.2 6.65 10.0 4.65 12.0 2.7 13.9 0.0 13.95 L-0.05 13.95 Q-2.75 13.9 -4.7 12.0 -6.7 10.0 -6.65 7.2 -6.7 4.55 -4.85 2.6 L-4.05 1.45 Q-2.3 -1.85 -0.05 -13.75 L-0.05 -14.0 0.0 -13.85 0.0 -14.0" fill="#990000" fill-rule="evenodd" stroke="none"/>
  </g>
</svg>
